# xmcd
#
# Track frame offsets:
#	150
#	18663
#	42334
#	66683
#	101673
#	117252
#	132671
#	152555
#	173743
#	204314
#
# Disc length: 2908 seconds
#
# Revision: 1
# Processed by: cddbd v1.5.2PL0 Copyright (c) Steve Scherf et al.
# Submitted via: audiograbber 1.83.01
#
DISCID=8f0b5a0a
DTITLE=Farmers Road Blues Band - Fifty Fifty
DYEAR=2012
DGENRE=Blues
TTITLE0=The Hustle is on
TTITLE1=Mailbox Blues
TTITLE2=To know you is to love you
TTITLE3=What to do
TTITLE4=Why are woman like that
TTITLE5=Another kind
TTITLE6=Love pleasure
TTITLE7=France
TTITLE8=Just a dream
TTITLE9=Dance with me
EXTD=Farmers Road Blues Band and friends (Natascha Bolden, Abi Wallenstein, Gre
EXTD=gor Hilden)
EXTT0=T-Bone Walker
EXTT1=Taj Mahal
EXTT2=Riley - B. King
EXTT3=
EXTT4=
EXTT5=
EXTT6=
EXTT7=Kevin Moore
EXTT8=Big Bill Broonzy
EXTT9=
PLAYORDER=
